<?xml version="1.0" encoding="utf-8"?>
<!-- Generator: Adobe Illustrator 22.0.1, SVG Export Plug-In . SVG Version: 6.00 Build 0)  -->
<svg version="1.1" id="Layer_1" xmlns="http://www.w3.org/2000/svg" xmlns:xlink="http://www.w3.org/1999/xlink" x="0px" y="0px"
	 viewBox="0 0 566.9 566.9" style="enable-background:new 0 0 566.9 566.9;" xml:space="preserve">
<style type="text/css">
	.st0{fill:#F79C82;}
	.st1{fill:#0D01FF;}
	.st2{fill:url(#SVGID_1_);}
	.st3{fill:url(#SVGID_2_);}
	.st4{fill:url(#SVGID_3_);}
	.st5{fill:url(#SVGID_4_);}
	.st6{fill:url(#SVGID_5_);}
	.st7{fill:none;}
	.st8{font-family:'FuturaStd-Bold';}
	.st9{font-size:26.8876px;}
	.st10{letter-spacing:26;}
	.st11{letter-spacing:32;}
</style>
<g>
	<rect x="2.6" class="st0" width="565.5" height="566.9"/>
	<path class="st1" d="M101.6,138h57v24h-57 M101.6,73.4h59v24h-59"/>
	<linearGradient id="SVGID_1_" gradientUnits="userSpaceOnUse" x1="88.8822" y1="79.0183" x2="88.8822" y2="168.2368">
		<stop  offset="0" style="stop-color:#F79C82"/>
		<stop  offset="0.626" style="stop-color:#0D01FF"/>
	</linearGradient>
	<path class="st2" d="M101.7,73.4v169.3H76.1V73.4H101.7z"/>
	<linearGradient id="SVGID_2_" gradientUnits="userSpaceOnUse" x1="261.872" y1="79.0183" x2="261.872" y2="168.2368">
		<stop  offset="1.822917e-03" style="stop-color:#F79C82"/>
		<stop  offset="1" style="stop-color:#0D01FF"/>
	</linearGradient>
	<path class="st3" d="M249.8,73.4v145.2h49.8v24h-75.4V73.4H249.8z"/>
	<g>
		<path class="st1" d="M401.6,470.4h11.4c11.4,0,21.1-1.1,28.7-3.6c7.6-2.5,14.6-6.5,20.7-12.1c12.6-11.4,18.9-26.5,18.9-44.9
			c0-18.6-6.3-33.7-18.6-45.1c-11.2-10.3-27.8-15.5-49.6-15.5h-11.4v-24h10.1c16.4,0,29.9,1.8,40.2,5.2c10.6,3.4,20.2,8.8,29,16.6
			c17.3,15.9,26,37,26,62.9c0,26-9,47.1-27.2,63.1c-9.2,8.1-18.6,13.7-28.7,16.8c-9.7,3.1-22.9,4.7-39.7,4.7h-9.7"/>
	</g>
	<linearGradient id="SVGID_3_" gradientUnits="userSpaceOnUse" x1="388.8286" y1="394.2772" x2="388.8286" y2="448.8712">
		<stop  offset="0" style="stop-color:#F79C82"/>
		<stop  offset="1" style="stop-color:#0D01FF"/>
	</linearGradient>
	<path class="st4" d="M401.6,390.8v103.6H376V390.8H401.6z"/>
	
		<linearGradient id="SVGID_4_" gradientUnits="userSpaceOnUse" x1="2676.6438" y1="1341.9127" x2="2676.6438" y2="1431.1312" gradientTransform="matrix(-1 0 0 -1 2967.1367 1830.6797)">
		<stop  offset="0" style="stop-color:#F79C82"/>
		<stop  offset="1" style="stop-color:#0D01FF"/>
	</linearGradient>
	<path class="st5" d="M277.7,494.4V325.1h25.6v169.3H277.7z"/>
	<linearGradient id="SVGID_5_" gradientUnits="userSpaceOnUse" x1="140.3191" y1="394.3171" x2="140.3191" y2="449.5436">
		<stop  offset="6.119150e-03" style="stop-color:#F79C82"/>
		<stop  offset="1" style="stop-color:#0D01FF"/>
	</linearGradient>
	<path class="st6" d="M103.3,409.8v17.3c0,14.6,2.5,25.1,7.2,31.9c7,9.7,17.1,14.6,29.9,14.6c13,0,23.1-4.9,30.1-14.6
		c4.7-6.5,7.2-17.1,7.2-31.9v-36.2h25.4V434c0,18-5.6,32.8-16.6,44.2c-12.3,12.8-27.8,19.3-46,19.3c-18.2,0-33.4-6.5-45.8-19.3
		C83.3,466.8,77.7,452,77.7,434v-24.2H103.3z"/>
	<path class="st1" d="M140.3,497.5c-18.2,0-33.4-6.5-45.8-19.3C83.3,466.8,77.7,452,77.7,434V325.1h25.6v101.9
		c0,14.6,2.5,25.1,7.2,31.9c7,9.7,17.1,14.6,29.9,14.6"/>
	<rect x="373.1" y="66.1" class="st7" width="31.5" height="178.3"/>
	<text transform="matrix(0 -1 1 0 395.3965 244.4468)" class="st1 st8 st9 st10">WORK</text>
	<rect x="432.2" y="66.1" class="st7" width="31.5" height="178.3"/>
	<text transform="matrix(0 -1 1 0 454.5361 244.4468)"><tspan x="0" y="0" class="st1 st8 st9 st11">SHO</tspan><tspan x="160.5" y="0" class="st1 st8 st9 st10">P</tspan></text>
</g>
</svg>
