<?xml version="1.0" encoding="utf-8"?>
<!-- Generator: Adobe Illustrator 22.0.1, SVG Export Plug-In . SVG Version: 6.00 Build 0)  -->
<svg version="1.1" id="Layer_1" xmlns="http://www.w3.org/2000/svg" xmlns:xlink="http://www.w3.org/1999/xlink" x="0px" y="0px"
	 viewBox="0 0 566.9 566.9" style="enable-background:new 0 0 566.9 566.9;" xml:space="preserve">
<style type="text/css">
	.st0{fill:#EF3E33;}
	.st1{fill:#004F32;}
	.st2{fill:url(#SVGID_1_);}
	.st3{fill:url(#SVGID_2_);}
	.st4{fill:url(#SVGID_3_);}
	.st5{fill:url(#SVGID_4_);}
	.st6{fill:url(#SVGID_5_);}
	.st7{fill:none;}
	.st8{enable-background:new    ;}
</style>
<g>
	<rect y="0" class="st0" width="566.9" height="566.9"/>
	<path class="st1" d="M99,138h57v24H99 M99,73.4h59v24H99"/>
	
		<linearGradient id="SVGID_1_" gradientUnits="userSpaceOnUse" x1="86.3044" y1="487.9068" x2="86.3044" y2="398.6837" gradientTransform="matrix(1 0 0 -1 0 566.9291)">
		<stop  offset="0" style="stop-color:#EF3E33"/>
		<stop  offset="0.633" style="stop-color:#004F32"/>
	</linearGradient>
	<path class="st2" d="M99.1,73.4v169.3H73.5V73.4H99.1z"/>
	
		<linearGradient id="SVGID_2_" gradientUnits="userSpaceOnUse" x1="259.3133" y1="487.9068" x2="259.3133" y2="398.6837" gradientTransform="matrix(1 0 0 -1 0 566.9291)">
		<stop  offset="1.822917e-03" style="stop-color:#EF3E33"/>
		<stop  offset="1" style="stop-color:#004F32"/>
	</linearGradient>
	<path class="st3" d="M247.2,73.4v145.2H297v24h-75.4V73.4H247.2z"/>
	<g>
		<path class="st1" d="M399.1,470.4h11.4c11.4,0,21.1-1.1,28.7-3.6s14.6-6.5,20.7-12.1c12.6-11.4,18.9-26.5,18.9-44.9
			c0-18.6-6.3-33.7-18.6-45.1c-11.2-10.3-27.8-15.5-49.6-15.5h-11.4v-24h10.1c16.4,0,29.9,1.8,40.2,5.2c10.6,3.4,20.2,8.8,29,16.6
			c17.3,15.9,26,37,26,62.9c0,26-9,47.1-27.2,63.1c-9.2,8.1-18.6,13.7-28.7,16.8c-9.7,3.1-22.9,4.7-39.7,4.7h-9.7"/>
	</g>
	
		<linearGradient id="SVGID_3_" gradientUnits="userSpaceOnUse" x1="386.3198" y1="172.6317" x2="386.3198" y2="118.0349" gradientTransform="matrix(1 0 0 -1 0 566.9291)">
		<stop  offset="0" style="stop-color:#EF3E33"/>
		<stop  offset="1" style="stop-color:#004F32"/>
	</linearGradient>
	<path class="st4" d="M399.1,390.8v103.6h-25.6V390.8H399.1z"/>
	
		<linearGradient id="SVGID_4_" gradientUnits="userSpaceOnUse" x1="2679.2219" y1="-774.9585" x2="2679.2219" y2="-864.1816" gradientTransform="matrix(-1 0 0 1 2967.1367 1263.7505)">
		<stop  offset="0" style="stop-color:#EF3E33"/>
		<stop  offset="1" style="stop-color:#004F32"/>
	</linearGradient>
	<path class="st5" d="M275.1,494.4V325.1h25.6v169.3L275.1,494.4L275.1,494.4z"/>
	
		<linearGradient id="SVGID_5_" gradientUnits="userSpaceOnUse" x1="137.8071" y1="172.5918" x2="137.8071" y2="117.3624" gradientTransform="matrix(1 0 0 -1 0 566.9291)">
		<stop  offset="6.119150e-03" style="stop-color:#EF3E33"/>
		<stop  offset="1" style="stop-color:#00482F"/>
	</linearGradient>
	<path class="st6" d="M100.7,409.8v17.3c0,14.6,2.5,25.1,7.2,31.9c7,9.7,17.1,14.6,29.9,14.6c13,0,23.1-4.9,30.1-14.6
		c4.7-6.5,7.2-17.1,7.2-31.9v-36.2h25.4V434c0,18-5.6,32.8-16.6,44.2c-12.3,12.8-27.8,19.3-46,19.3s-33.4-6.5-45.8-19.3
		c-11.4-11.4-17-26.2-17-44.2v-24.2H100.7z"/>
	<path class="st1" d="M137.8,497.5c-18.2,0-33.4-6.5-45.8-19.3C80.7,466.8,75.1,452,75.1,434V325.1h25.6V427
		c0,14.6,2.5,25.1,7.2,31.9c7,9.7,17.1,14.6,29.9,14.6"/>
	<rect x="370.5" y="66.1" class="st7" width="31.5" height="178.3"/>
	<g class="st8">
		<path class="st1" d="M377,237.5h3.4v-5.9h4.5v5.9h3.5v-6.3h4.5v11.5h-20.3v-11.5h4.5V237.5z"/>
		<path class="st1" d="M384.9,197.5l-12.3-4.9v-5.7l20.3,8.7v4.1l-20.3,8.5v-5.7L384.9,197.5z"/>
		<path class="st1" d="M377,158.2h3.4v-5.9h4.5v5.9h3.5V152h4.5v11.5h-20.3V152h4.5V158.2z"/>
		<path class="st1" d="M372.6,126.7v-5.3l12.4-9.7v-0.1h-12.4v-5.3h20.3v5.3l-12.4,9.7v0.1h12.4v5.3H372.6z"/>
	</g>
	<g class="st8">
		<path class="st1" d="M392.9,70.7v5.3H377v4.4h-4.5v-14h4.5v4.4H392.9z"/>
	</g>
</g>
</svg>
