<?xml version="1.0" encoding="utf-8"?>
<!-- Generator: Adobe Illustrator 22.0.1, SVG Export Plug-In . SVG Version: 6.00 Build 0)  -->
<svg version="1.1" id="Layer_1" xmlns="http://www.w3.org/2000/svg" xmlns:xlink="http://www.w3.org/1999/xlink" x="0px" y="0px"
	 viewBox="0 0 566.9 566.9" style="enable-background:new 0 0 566.9 566.9;" xml:space="preserve">
<style type="text/css">
	.st0{fill:#010101;}
	.st1{fill:#F79C82;}
	.st2{fill:url(#SVGID_1_);}
	.st3{fill:url(#SVGID_2_);}
	.st4{fill:url(#SVGID_3_);}
	.st5{fill:url(#SVGID_4_);}
	.st6{fill:url(#SVGID_5_);}
</style>
<rect x="119.2" y="119.2" class="st0" width="328.7" height="328.7"/>
<path class="st1" d="M187.8,208.4h31.5v12.4h-31.5 M187.8,175h32.5v12.4h-32.5"/>
<linearGradient id="SVGID_1_" gradientUnits="userSpaceOnUse" x1="181.2825" y1="177.908" x2="181.2825" y2="223.9355">
	<stop  offset="0" style="stop-color:#010101"/>
	<stop  offset="0.633" style="stop-color:#F79C82"/>
</linearGradient>
<path class="st2" d="M187.9,175v87.3h-13.2V175H187.9z"/>
<linearGradient id="SVGID_2_" gradientUnits="userSpaceOnUse" x1="274.5014" y1="177.908" x2="274.5014" y2="223.9355">
	<stop  offset="1.822917e-03" style="stop-color:#010101"/>
	<stop  offset="1" style="stop-color:#F79C82"/>
</linearGradient>
<path class="st3" d="M268.2,175v74.9H294v12.4H255V175H268.2z"/>
<g>
	<path class="st1" d="M344.7,379.8h5.9c5.9,0,10.9-0.6,14.8-1.9c3.9-1.3,7.5-3.4,10.7-6.3c6.5-5.9,9.7-13.7,9.7-23.2
		c0-9.6-3.2-17.4-9.6-23.3c-5.8-5.3-14.4-8-25.6-8h-5.9v-12.4h5.2c8.5,0,15.4,0.9,20.7,2.7c5.4,1.7,10.4,4.5,14.9,8.6
		c8.9,8.2,13.4,19.1,13.4,32.4c0,13.4-4.6,24.3-14,32.5c-4.7,4.2-9.6,7.1-14.8,8.7c-5,1.6-11.8,2.4-20.5,2.4h-5"/>
</g>
<linearGradient id="SVGID_3_" gradientUnits="userSpaceOnUse" x1="338.0873" y1="340.5489" x2="338.0873" y2="368.7138">
	<stop  offset="0" style="stop-color:#010101"/>
	<stop  offset="1" style="stop-color:#F79C82"/>
</linearGradient>
<path class="st4" d="M344.7,338.8v53.4h-13.2v-53.4H344.7z"/>
<linearGradient id="SVGID_4_" gradientUnits="userSpaceOnUse" x1="2679.7803" y1="1441.3839" x2="2679.7803" y2="1487.4114" gradientTransform="matrix(-1 0 0 -1 2967.1367 1830.6797)">
	<stop  offset="0" style="stop-color:#010101"/>
	<stop  offset="1" style="stop-color:#F79C82"/>
</linearGradient>
<path class="st5" d="M280.8,392.2v-87.3H294v87.3H280.8z"/>
<linearGradient id="SVGID_5_" gradientUnits="userSpaceOnUse" x1="207.8186" y1="340.5695" x2="207.8186" y2="369.0607">
	<stop  offset="6.119150e-03" style="stop-color:#010101"/>
	<stop  offset="1" style="stop-color:#F79C82"/>
</linearGradient>
<path class="st6" d="M188.7,348.5v8.9c0,7.5,1.3,13,3.7,16.4c3.6,5,8.8,7.5,15.4,7.5c6.7,0,11.9-2.5,15.5-7.5
	c2.4-3.4,3.7-8.8,3.7-16.4v-18.7h13.1v22.3c0,9.3-2.9,16.9-8.6,22.8c-6.4,6.6-14.4,10-23.7,10c-9.4,0-17.3-3.4-23.6-10
	c-5.8-5.9-8.7-13.5-8.7-22.8v-12.5H188.7z"/>
<path class="st1" d="M207.8,393.8c-9.4,0-17.3-3.4-23.6-10c-5.8-5.9-8.7-13.5-8.7-22.8v-56.2h13.2v52.6c0,7.5,1.3,13,3.7,16.4
	c3.6,5,8.8,7.5,15.4,7.5"/>
<g>
	<path class="st1" d="M347.5,256.3c-0.6,0.5-1,1.2-1,2c0,1.4,1.1,2.3,2.4,2.3c1.4,0,2.4-1,2.4-2.4c0-0.7-0.4-1.5-0.9-2h2.7
		c0.2,0.8,0.4,1.3,0.4,2c0,1.2-0.5,2.4-1.3,3.3c-0.9,1-2,1.4-3.3,1.4c-1.2,0-2.3-0.5-3.2-1.3c-0.9-0.9-1.4-2.1-1.4-3.3
		c0-0.7,0.2-1.4,0.4-2.1H347.5z"/>
	<path class="st1" d="M348.8,241.5c2.8,0,4.8,2,4.8,4.8s-2,4.8-4.8,4.8c-2.6,0-4.5-2.3-4.5-4.8S346.1,241.5,348.8,241.5z
		 M348.8,248.8c1.5,0,2.6-1.1,2.6-2.5c0-1.4-1.1-2.5-2.6-2.5c-1.2,0-2.3,1.1-2.3,2.5C346.5,247.7,347.6,248.8,348.8,248.8z"/>
	<path class="st1" d="M351.4,234.1v-2.7h1.9v5h-8.8v-2.3H351.4z"/>
	<path class="st1" d="M351.4,224.3v-2.7h1.9v5h-8.8v-2.3H351.4z"/>
	<path class="st1" d="M346.5,214.5h1.5v-2.6h1.9v2.6h1.5v-2.7h1.9v5h-8.8v-5h1.9V214.5z"/>
	<path class="st1" d="M347.5,200.1c-0.6,0.5-1,1.2-1,2c0,1.4,1.1,2.3,2.4,2.3c1.4,0,2.4-1,2.4-2.4c0-0.7-0.4-1.5-0.9-2h2.7
		c0.2,0.8,0.4,1.3,0.4,2c0,1.2-0.5,2.4-1.3,3.3c-0.9,1-2,1.4-3.3,1.4c-1.2,0-2.3-0.5-3.2-1.3c-0.9-0.9-1.4-2.1-1.4-3.3
		c0-0.7,0.2-1.4,0.4-2.1H347.5z"/>
	<path class="st1" d="M353.3,191.1v2.3h-6.8v1.9h-1.9v-6h1.9v1.9H353.3z"/>
	<path class="st1" d="M353.3,182.1v2.3h-8.8v-2.3H353.3z"/>
	<path class="st1" d="M346.5,174.2h1.5v-2.5h1.9v2.5h3.4v2.3h-8.8v-5h1.9V174.2z"/>
</g>
<g>
	<path class="st1" d="M363.5,256.3c-0.6,0.5-1,1.2-1,2c0,1.4,1.1,2.3,2.4,2.3c1.4,0,2.4-1,2.4-2.4c0-0.7-0.4-1.5-0.9-2h2.7
		c0.2,0.8,0.4,1.3,0.4,2c0,1.2-0.5,2.4-1.3,3.3c-0.9,1-2,1.4-3.3,1.4c-1.2,0-2.3-0.5-3.2-1.3c-0.9-0.9-1.4-2.1-1.4-3.3
		c0-0.7,0.2-1.4,0.4-2.1H363.5z"/>
	<path class="st1" d="M360.6,243.2h4.9c1.1,0,2.2,0,3.1,0.9c0.7,0.7,1,1.9,1,2.9s-0.3,2.2-1,2.9c-0.8,0.9-2,0.9-3.1,0.9h-4.9v-2.3
		h4.6c1.1,0,2.4-0.1,2.4-1.5c0-1.5-1.2-1.5-2.4-1.5h-4.6V243.2z"/>
	<path class="st1" d="M369.3,230.4v2.8l-3.4,2.1v0h3.4v2.3h-8.8v-3.4c0-1.7,0.8-3,2.7-3c1.2,0,2.3,0.7,2.5,1.9L369.3,230.4z
		 M364.5,235.4v-0.2c0-0.7-0.1-1.6-1.1-1.6s-1.1,0.8-1.1,1.6v0.2H364.5z"/>
	<path class="st1" d="M369.3,223.4v2.3h-8.8v-2.3H369.3z"/>
	<path class="st1" d="M362.5,215.6h1.5V213h1.9v2.6h1.5v-2.7h1.9v5h-8.8v-5h1.9V215.6z"/>
	<path class="st1" d="M360.6,199.8h4.9c1.1,0,2.2,0,3.1,0.9c0.7,0.7,1,1.9,1,2.9c0,1-0.3,2.2-1,2.9c-0.8,0.9-2,0.9-3.1,0.9h-4.9
		v-2.3h4.6c1.1,0,2.4-0.1,2.4-1.5c0-1.5-1.2-1.5-2.4-1.5h-4.6V199.8z"/>
	<path class="st1" d="M360.6,194.5v-2.8l2.3-1.3l-2.3-1.3v-2.8l4.1,2.8l4.7-3.2v2.7l-2.9,1.8l2.9,2v2.8l-4.7-3.4L360.6,194.5z"/>
</g>
</svg>
