<?xml version="1.0" encoding="utf-8"?>
<!-- Generator: Adobe Illustrator 22.0.1, SVG Export Plug-In . SVG Version: 6.00 Build 0)  -->
<svg version="1.1" id="Layer_1" xmlns="http://www.w3.org/2000/svg" xmlns:xlink="http://www.w3.org/1999/xlink" x="0px" y="0px"
	 viewBox="0 0 566.9 566.9" style="enable-background:new 0 0 566.9 566.9;" xml:space="preserve">
<style type="text/css">
	.st0{fill:#F79C82;}
	.st1{fill:#0D01FF;}
	.st2{fill:url(#SVGID_1_);}
	.st3{fill:url(#SVGID_2_);}
	.st4{fill:url(#SVGID_3_);}
	.st5{fill:url(#SVGID_4_);}
	.st6{fill:url(#SVGID_5_);}
	.st7{fill:none;}
	.st8{enable-background:new    ;}
</style>
<g>
	<rect y="0" class="st0" width="565.5" height="566.9"/>
	<path class="st1" d="M99,138h57v24H99 M99,73.4h59v24H99"/>
	
		<linearGradient id="SVGID_1_" gradientUnits="userSpaceOnUse" x1="86.3044" y1="487.9068" x2="86.3044" y2="398.6837" gradientTransform="matrix(1 0 0 -1 0 566.9291)">
		<stop  offset="0" style="stop-color:#F79C82"/>
		<stop  offset="0.626" style="stop-color:#0D01FF"/>
	</linearGradient>
	<path class="st2" d="M99.1,73.4v169.3H73.5V73.4H99.1z"/>
	
		<linearGradient id="SVGID_2_" gradientUnits="userSpaceOnUse" x1="259.3133" y1="487.9068" x2="259.3133" y2="398.6837" gradientTransform="matrix(1 0 0 -1 0 566.9291)">
		<stop  offset="1.822917e-03" style="stop-color:#F79C82"/>
		<stop  offset="1" style="stop-color:#0D01FF"/>
	</linearGradient>
	<path class="st3" d="M247.2,73.4v145.2H297v24h-75.4V73.4H247.2z"/>
	<g>
		<path class="st1" d="M399,470.4h11.4c11.4,0,21.1-1.1,28.7-3.6s14.6-6.5,20.7-12.1c12.6-11.4,18.9-26.5,18.9-44.9
			c0-18.6-6.3-33.7-18.6-45.1c-11.2-10.3-27.8-15.5-49.6-15.5h-11.4v-24h10.1c16.4,0,29.9,1.8,40.2,5.2c10.6,3.4,20.2,8.8,29,16.6
			c17.3,15.9,26,37,26,62.9c0,26-9,47.1-27.2,63.1c-9.2,8.1-18.6,13.7-28.7,16.8c-9.7,3.1-22.9,4.7-39.7,4.7h-9.7"/>
	</g>
	
		<linearGradient id="SVGID_3_" gradientUnits="userSpaceOnUse" x1="386.2198" y1="172.6317" x2="386.2198" y2="118.0349" gradientTransform="matrix(1 0 0 -1 0 566.9291)">
		<stop  offset="0" style="stop-color:#F79C82"/>
		<stop  offset="1" style="stop-color:#0D01FF"/>
	</linearGradient>
	<path class="st4" d="M399,390.8v103.6h-25.6V390.8H399z"/>
	
		<linearGradient id="SVGID_4_" gradientUnits="userSpaceOnUse" x1="2679.2219" y1="-774.9585" x2="2679.2219" y2="-864.1816" gradientTransform="matrix(-1 0 0 1 2967.1367 1263.7505)">
		<stop  offset="0" style="stop-color:#F79C82"/>
		<stop  offset="1" style="stop-color:#0D01FF"/>
	</linearGradient>
	<path class="st5" d="M275.1,494.4V325.1h25.6v169.3L275.1,494.4L275.1,494.4z"/>
	
		<linearGradient id="SVGID_5_" gradientUnits="userSpaceOnUse" x1="137.8071" y1="172.5918" x2="137.8071" y2="117.3624" gradientTransform="matrix(1 0 0 -1 0 566.9291)">
		<stop  offset="6.119150e-03" style="stop-color:#F79C82"/>
		<stop  offset="1" style="stop-color:#0D01FF"/>
	</linearGradient>
	<path class="st6" d="M100.7,409.8v17.3c0,14.6,2.5,25.1,7.2,31.9c7,9.7,17.1,14.6,29.9,14.6c13,0,23.1-4.9,30.1-14.6
		c4.7-6.5,7.2-17.1,7.2-31.9v-36.2h25.4V434c0,18-5.6,32.8-16.6,44.2c-12.3,12.8-27.8,19.3-46,19.3s-33.4-6.5-45.8-19.3
		c-11.4-11.4-17-26.2-17-44.2v-24.2H100.7z"/>
	<path class="st1" d="M137.7,497.5c-18.2,0-33.4-6.5-45.8-19.3C80.7,466.8,75.1,452,75.1,434V325.1h25.6V427
		c0,14.6,2.5,25.1,7.2,31.9c7,9.7,17.1,14.6,29.9,14.6"/>
	<rect x="370.5" y="66.1" class="st7" width="31.5" height="178.3"/>
	<g class="st8">
		<path class="st1" d="M385.6,235.9L385.6,235.9l-13.1-4.3v-4.2l13.1-4v-0.1l-13.1-3.8V214l20.3,6.5v5.4l-11.7,3.5v0.1l11.7,4v5.4
			l-20.3,6v-5.5L385.6,235.9z"/>
		<path class="st1" d="M382.3,165.3c6.6,0,11.2,4.7,11.2,11.2s-4.6,11.2-11.2,11.2c-6.1,0-10.4-5.4-10.4-11.2
			C371.9,170.7,376.2,165.3,382.3,165.3z M382.3,182.3c3.5,0,6-2.6,6-5.7c0-3.1-2.6-5.7-6-5.7c-2.8,0-5.4,2.6-5.4,5.7
			C377,179.7,379.5,182.3,382.3,182.3z"/>
		<path class="st1" d="M392.8,120v6.6l-7.8,5v0.1h7.8v5.3h-20.3V129c0-4,1.9-7,6.2-7c2.8,0,5.2,1.6,5.7,4.4L392.8,120z M381.6,131.6
			v-0.5c0-1.7-0.3-3.7-2.5-3.7c-2.2,0-2.5,1.9-2.5,3.7v0.5H381.6z"/>
		<path class="st1" d="M372.5,80.9v-6.5l9.6,8.1l10.7-8.8v6.8l-8.8,6.8v0.1h8.8v5.3h-20.3v-5.3h8.4v-0.1L372.5,80.9z"/>
	</g>
	<rect x="429.6" y="66.1" class="st7" width="31.5" height="178.3"/>
	<g class="st8">
		<path class="st1" d="M436.9,231.6c-0.8,1-1.3,2.2-1.3,3.5c0,1,0.6,2.3,1.7,2.3c1.2,0,1.6-1.4,1.9-2.3l0.4-1.3c0.8-2.8,2.3-5,5.5-5
			c2,0,4.1,0.5,5.5,2.1c1.3,1.6,1.9,3.7,1.9,5.8c0,2.6-0.9,5.1-2.3,7.1l-4.2-2.3c1.2-1.3,2.1-2.9,2.1-4.7c0-1.2-0.6-2.6-2-2.6
			c-1.5,0-2,2.1-2.3,3.2c-0.9,3.3-1.8,5.5-5.7,5.5c-4.1,0-6.8-2.9-6.8-7c0-2,0.6-4.5,1.7-6.3L436.9,231.6z"/>
		<path class="st1" d="M439.5,181.3h-7.8V176H452v5.3h-8.3v7.6h8.3v5.3h-20.3v-5.3h7.8V181.3z"/>
		<path class="st1" d="M441.4,119.2c6.6,0,11.2,4.7,11.2,11.2c0,6.5-4.6,11.2-11.2,11.2c-6.1,0-10.4-5.4-10.4-11.2
			C431,124.6,435.3,119.2,441.4,119.2z M441.5,136.1c3.5,0,6-2.6,6-5.7c0-3.1-2.6-5.7-6-5.7c-2.8,0-5.4,2.6-5.4,5.7
			C436.1,133.5,438.7,136.1,441.5,136.1z"/>
	</g>
	<g class="st8">
		<path class="st1" d="M431.7,82.2v-8.1c0-4.4,2-7.4,6.7-7.4c4.8,0,6.9,2.6,6.9,7.2v3h6.7v5.3H431.7z M441,77v-0.9
			c0-1.9,0-3.8-2.5-3.8c-2.6,0-2.6,1.7-2.6,3.8V77H441z"/>
	</g>
</g>
</svg>
