<?xml version="1.0" encoding="utf-8"?>
<!-- Generator: Adobe Illustrator 22.0.1, SVG Export Plug-In . SVG Version: 6.00 Build 0)  -->
<svg version="1.1" id="Layer_1" xmlns="http://www.w3.org/2000/svg" xmlns:xlink="http://www.w3.org/1999/xlink" x="0px" y="0px"
	 viewBox="0 0 141.8 566.9" style="enable-background:new 0 0 141.8 566.9;" xml:space="preserve">
<style type="text/css">
	.st0{fill:#FFA17F;}
	.st1{enable-background:new    ;}
	.st2{fill:#FFFFFF;}
</style>
<rect y="0" class="st0" width="141.7" height="566.9"/>
<g class="st1">
	<path class="st2" d="M111.7,413.6h2.6v18.2l-20.2,10.3l-0.2-0.2c0.1,1.2,0.2,2.8,0.3,4.9h17.4l0.1-3.7h2.6V463h-2.6l-0.1-3.7H66.5
		l-0.1,3.7h-2.6l0.2-14.6L63,437.1c0-3.6,0.7-6.7,2-9.3c1.3-2.6,3.1-4.6,5.4-5.9c2.2-1.3,4.7-2,7.4-2c3.1,0,5.8,0.9,8.2,2.7
		c2.3,1.8,4.2,4.5,5.6,8.2l20.1-13.5L111.7,413.6z M91.3,446.7c-0.3-4.2-1.4-7.4-3.4-9.8c-2-2.4-4.8-3.5-8.3-3.5
		c-2.5,0-4.7,0.6-6.7,1.7c-2,1.2-3.6,2.7-4.8,4.8c-1.2,2-1.7,4.3-1.7,6.9H91.3z"/>
	<path class="st2" d="M64.4,409.8l-2.2-9.7h8.6l1.4,9.7H64.4z M111.9,399.4l0.2-2.8h2.2v16.2h-2.2l-0.2-2.8L85,410.3l0.6,2.9
		l-2.2,0.8l-4.2-13.7l1.8-1.1L111.9,399.4z"/>
	<path class="st2" d="M89.7,380.8c1.1-1.1,2.4-2.7,3.9-4.9c1.9-2.7,3.5-4.8,5.1-6.2c1.5-1.4,3.4-2.1,5.6-2.1c2,0,3.8,0.6,5.5,1.7
		c1.7,1.2,3.1,2.8,4.1,4.9c1,2.1,1.5,4.5,1.5,7.2c0,2.6-0.6,5.1-1.9,7.4s-2.9,4.1-4.8,5.2l-5.2-6.5c3.8-2,6.9-4.1,9.3-6.2
		c-0.7-0.9-1.4-1.6-2.3-2.2c-0.9-0.6-1.7-0.9-2.6-0.9c-1.4,0-2.6,0.5-3.7,1.5c-1,1-2.3,2.6-3.7,4.8c-1.2,1.8-2.2,3.2-3,4.2
		c-0.9,1.1-1.9,2-3.1,2.7c-1.2,0.7-2.6,1.1-4.1,1.1c-1.9,0-3.6-0.6-5.4-1.8c-1.7-1.2-3.1-3-4.2-5.2c-1.1-2.2-1.6-4.7-1.6-7.6
		c0-2.2,0.5-4.2,1.4-6.2c0.9-1.9,2.1-3.5,3.5-4.7l5.8,5.9c-3.1,2.4-5.8,5.1-8.2,8c1.1,0.9,2.5,1.3,4.3,1.3
		C87.4,382.4,88.6,381.9,89.7,380.8z"/>
	<path class="st2" d="M83.7,335.1c3-3.1,7.2-4.6,12.7-4.6c2.4,0,4.8,0.4,7.3,1.2c2.5,0.8,4.7,2.1,6.6,3.7c1.6,1.6,2.8,3.5,3.7,5.6
		c0.9,2.1,1.4,4.4,1.4,6.8c0,5-1.5,9.1-4.5,12.2c-3,3.1-7.2,4.6-12.7,4.6c-2.3,0-4.7-0.4-7.2-1.3c-2.5-0.9-4.7-2.1-6.6-3.7
		c-1.6-1.6-2.8-3.5-3.8-5.6c-1-2.1-1.4-4.4-1.4-6.7C79.2,342.2,80.7,338.1,83.7,335.1z M105.4,350.8c2.4-1.9,3.8-4.7,4.2-8.3
		c-1.5-0.4-3.2-0.6-5.1-0.8c-1.9-0.2-3.4-0.3-4.6-0.3c-4.8,0-8.4,0.9-10.8,2.8c-2.3,1.9-3.7,4.6-4.2,8.3c1.6,0.4,3.3,0.6,5.1,0.9
		s3.4,0.3,4.5,0.3C99.5,353.6,103.1,352.7,105.4,350.8z"/>
	<path class="st2" d="M111.8,298c1-2,2.2-3.5,3.8-4.6c2.9,1,5.7,2.5,8.5,4.6c2.8,2.1,5,4.6,6.8,7.6c1.8,2.9,2.7,6.1,2.7,9.5
		c0,3.3-0.8,5.9-2.5,7.9c-1.6,2-3.7,3-6.2,3c-2.1,0-4.5-0.5-7.2-1.6c-0.9,1.8-2.4,3.3-4.6,4.5l-8.5-7.6c-1.1,1.9-2.5,3.4-4.3,4.5
		c-1.8,1.1-3.8,1.6-6,1.6c-2.1,0-4.1-0.4-6.1-1.3c-2-0.9-3.7-1.9-5.1-3.2c-1.1-1.3-2-3-2.7-5.1c-0.8-2.1-1.1-4.4-1.1-6.8
		c0-1.7,0.2-3.2,0.5-4.5l-10.6-6.3c-0.2-1-0.3-2.1-0.3-3.2c0-2.1,0.4-4.2,1.3-6.1l9.8,5.3c-0.7,1.6-1,3.2-1,4.8c0,0.5,0.1,1.2,0.2,2
		l1.5,1.1c1-2.3,2.5-4.1,4.4-5.4s4.1-2,6.6-2c2,0,3.9,0.4,5.9,1.3c1.9,0.9,3.7,2,5.2,3.2c1.1,1.3,2,3,2.8,5.1
		c0.7,2.1,1.1,4.4,1.1,6.7c0,2.2-0.4,4.3-1.1,6.1l2.1,1.7c0.5-0.3,0.9-1,1.2-2c0.4-1,0.6-2.2,0.6-3.6l0.7-10
		C110.3,302.4,110.9,300,111.8,298z M87.1,309.1c-1.8,1.6-2.8,3.9-3.2,6.8c2.8,1,5.3,1.4,7.7,1.4c3,0,5.4-0.8,7.2-2.4
		c1.8-1.6,2.8-3.9,3.2-6.9c-2.4-0.9-4.9-1.4-7.6-1.4C91.3,306.7,88.8,307.5,87.1,309.1z M125.2,306.4c-0.3-1.5-0.7-2.7-1.2-3.7
		s-0.9-1.6-1.2-1.8c-0.7,0.3-1.4,1.2-2.1,2.7c-0.7,1.5-1.1,3.6-1.2,6.2l-0.5,8.4c-0.1,1-0.2,2.1-0.4,3.5c2-0.3,3.7-1.3,5-3.3
		c1.3-1.9,2-4.4,2-7.5C125.7,309.3,125.5,307.8,125.2,306.4z"/>
	<path class="st2" d="M90.7,279.2l21.2,0.3l0.2-6.7h2.2v20.2h-2.2l-0.2-2.8l-27,0.2l0.7,2.9l-2.3,0.8l-3.7-11.9l8.1-2.6
		c-3.4-1.7-6-3.5-7.9-5.4c-0.4-1.1-0.6-2.4-0.6-4c0-2.1,0.4-4.1,1.1-6l9.8,2.4c-0.3,1.5-0.6,3.3-0.8,5.6c-0.3,2.3-0.4,4.1-0.5,5.6
		L90.7,279.2z"/>
	<path class="st2" d="M110.4,234.8l5.2,11.1c-1,1.4-2.3,2.3-3.9,2.8c1.1,1.8,2,3.6,2.7,5.5c0.7,1.8,1.1,3.4,1.1,4.8
		c0,2.1-0.7,3.8-2.2,5.1c-1.5,1.3-3.3,2-5.6,2c-1,0-2.1-0.1-3.3-0.3c-1.2-0.2-2.1-0.5-2.8-0.9l-2.6-16l-2.2-0.2
		c-2.3-0.1-4,0.4-5.3,1.4c-1.3,1.1-1.9,2.8-1.9,5.1c0,1.1,0.1,2.2,0.3,3.3c0.2,1.2,0.5,2.1,0.9,2.9l2.6,1.2l-0.8,2l-10.9-3.5
		c-1.7-3.9-2.5-7.6-2.5-11c0-3.6,0.9-6.5,2.8-8.8s4.8-3.4,8.9-3.4l1.5,0.1l10.2,0.8l2.7,0.2c0.9,0,1.6-0.1,2.2-0.2
		c0.5-0.2,1.1-0.4,1.6-0.8l-0.9-2.3L110.4,234.8z M109.1,249.1l-1.6,0.1l-1.7-0.1l-4.3-0.2l1.4,5.8c0.7,0.2,1.5,0.3,2.6,0.3
		c1.5,0,2.6-0.3,3.4-0.9s1.1-1.3,1.1-2.2C110,251.1,109.7,250.2,109.1,249.1z"/>
	<path class="st2" d="M81.2,204.2c1.3-2.2,3.2-4,5.5-5.2c2.3-1.2,5-1.9,8-1.9c2.6,0,5.3,0.4,8.2,1.2c2.9,0.8,5.1,1.9,6.7,3.1
		c1.4,1,2.7,2.7,4,5.2c1.3,2.5,1.9,4.6,1.9,6.3c0,1.3-0.2,3.3-0.7,6.1l16-0.2l0.2-5.8h2.2v20H131l-0.2-2.8L84.7,230l0.7,2.9
		l-2.3,0.8l-3.7-11.7l8.6-2.4l-8.8-7.6C79.2,209,79.9,206.4,81.2,204.2z M99.2,207.9c-2.3,0-4.3,0.4-6,1.1c-1.7,0.8-3,1.8-3.9,3
		c-0.9,1.2-1.4,2.6-1.4,4l3.3,3.3l15.3-0.2c1.6-3.3,2.6-6.4,3.2-9.4C106.9,208.5,103.4,207.9,99.2,207.9z"/>
	<path class="st2" d="M112.1,158.2h2.2v16.2h-2.2l-0.2-2.8H96c-2.2,0-3.9,0.6-5.1,1.8c-1.2,1.2-1.8,2.9-1.9,5.1l2.5,2.5l20.5,0.2
		l0.2-2.8h2.2v16.2h-2.2l-0.2-2.8l-45.2,0.4l0.6,2.9l-2.2,0.8l-4.2-14l1.8-1.1l25.1,0.2l-8.8-6.1c0-4.8,1.1-8.3,3.4-10.6
		c2.3-2.3,5.8-3.4,10.5-3.4h19L112.1,158.2z"/>
	<path class="st2" d="M64.4,151.7l-2.2-9.7h8.6l1.4,9.7H64.4z M111.9,141.2l0.2-2.8h2.2v16.2h-2.2l-0.2-2.8L85,152.1l0.6,2.9
		l-2.2,0.8l-4.2-13.7L81,141L111.9,141.2z"/>
	<path class="st2" d="M84,107.5c3.2-2.5,7.5-3.8,13-3.7l0.7,20.8c3-0.4,5.2-1.4,6.8-3.1c1.6-1.7,2.3-4,2.3-6.8
		c0-3.9-1.1-7.1-3.2-9.6l1.2-1.4c3.4,1.8,6,4.1,7.9,7.1c1.9,3,2.8,6.2,2.8,9.6c0,4.6-1.5,8.2-4.6,10.9c-3,2.7-7.2,4-12.3,4
		c-3.1,0-6.1-0.6-9.1-1.8c-3-1.2-5.5-2.8-7.6-4.7c-0.8-1.3-1.4-3-1.9-5.1c-0.5-2.1-0.8-4-0.8-5.8C79.2,113.6,80.8,110.1,84,107.5z
		 M94.5,115c-3.5,0.1-6.3,0.6-8.4,1.5c-2.1,1-3.3,2.3-3.7,4.1c1.3,1.3,3.1,2.3,5.5,3.1c2.3,0.8,4.7,1.2,7.2,1.2h0.2L94.5,115z"/>
</g>
</svg>
