<?xml version="1.0" encoding="utf-8"?>
<!-- Generator: Adobe Illustrator 22.0.1, SVG Export Plug-In . SVG Version: 6.00 Build 0)  -->
<svg version="1.1" id="Layer_1" xmlns="http://www.w3.org/2000/svg" xmlns:xlink="http://www.w3.org/1999/xlink" x="0px" y="0px"
	 viewBox="0 0 141.8 566.9" style="enable-background:new 0 0 141.8 566.9;" xml:space="preserve">
<style type="text/css">
	.st0{fill:#0D01FF;}
	.st1{enable-background:new    ;}
	.st2{fill:#FFFFFF;}
</style>
<rect y="0" class="st0" width="141.7" height="566.9"/>
<g class="st1">
	<path class="st2" d="M63.7,385h14.6l-0.1,2.9l-3.8,0.2c-3.7,5.2-6.5,9.5-8.2,12.9h45.3l0.1-6h2.6v24.5h-2.6l-0.1-6H66.3
		c1.8,3.4,4.5,7.7,8.2,12.9l3.8,0.2l0.1,2.9H63.7V385z"/>
	<path class="st2" d="M84,358.3c3.2-2.5,7.5-3.8,13-3.7l0.7,20.8c3-0.4,5.2-1.4,6.8-3.1c1.6-1.7,2.3-4,2.3-6.8
		c0-3.9-1.1-7.1-3.2-9.6l1.2-1.4c3.4,1.8,6,4.1,7.9,7.1c1.9,3,2.8,6.2,2.8,9.6c0,4.6-1.5,8.2-4.6,10.9c-3,2.7-7.2,4-12.3,4
		c-3.1,0-6.1-0.6-9.1-1.8c-3-1.2-5.5-2.8-7.6-4.7c-0.8-1.3-1.4-3-1.9-5.1c-0.5-2.1-0.8-4-0.8-5.8C79.2,364.3,80.8,360.8,84,358.3z
		 M94.5,365.7c-3.5,0.1-6.3,0.6-8.4,1.5c-2.1,1-3.3,2.3-3.7,4.1c1.3,1.3,3.1,2.3,5.5,3.1c2.3,0.8,4.7,1.2,7.2,1.2h0.2L94.5,365.7z"
		/>
	<path class="st2" d="M110.4,321.5l5.2,11.1c-1,1.4-2.3,2.3-3.9,2.8c1.1,1.8,2,3.6,2.7,5.5c0.7,1.8,1.1,3.4,1.1,4.8
		c0,2.1-0.7,3.8-2.2,5.1c-1.5,1.3-3.3,2-5.6,2c-1,0-2.1-0.1-3.3-0.3c-1.2-0.2-2.1-0.5-2.8-0.9l-2.6-16l-2.2-0.2
		c-2.3-0.1-4,0.4-5.3,1.4c-1.3,1.1-1.9,2.8-1.9,5.1c0,1.1,0.1,2.2,0.3,3.3c0.2,1.2,0.5,2.1,0.9,2.9l2.6,1.2l-0.8,2l-10.9-3.5
		c-1.7-3.9-2.5-7.6-2.5-11c0-3.6,0.9-6.5,2.8-8.8c1.9-2.3,4.8-3.4,8.9-3.4l1.5,0.1l10.2,0.8l2.7,0.2c0.9,0,1.6-0.1,2.2-0.2
		c0.5-0.2,1.1-0.4,1.6-0.8l-0.9-2.3L110.4,321.5z M109.1,335.8l-1.6,0.1l-1.7-0.1l-4.3-0.2l1.4,5.8c0.7,0.2,1.5,0.3,2.6,0.3
		c1.5,0,2.6-0.3,3.4-0.9s1.1-1.3,1.1-2.2C110,337.8,109.7,336.9,109.1,335.8z"/>
	<path class="st2" d="M112.1,263.7h2.2v16.2h-2.2l-0.2-2.8H96c-2.2,0-3.9,0.6-5.2,1.7c-1.2,1.1-1.9,2.7-1.9,4.7l2.8,2.8H93h19
		l0.2-2.7h2.2v16.2h-2.2l-0.2-2.8H96c-2.2,0-3.9,0.6-5.1,1.7c-1.2,1.1-1.8,2.7-1.9,4.7l2.5,2.5l20.5,0.3l0.2-2.8h2.2v16.2h-2.2
		l-0.2-2.8l-27,0.2l0.7,2.9l-2.3,0.8l-3.7-11.9l8.5-2.6l-9-6.3c0-3.9,0.8-6.9,2.3-9c1.6-2.1,4-3.5,7.2-4.1L79,280
		c0-4.6,1.1-8,3.4-10.2c2.3-2.2,5.8-3.3,10.6-3.3h19L112.1,263.7z"/>
	<path class="st2" d="M99.3,209.3h15v38.3h-2.6l-0.1-3.7H66.5l-0.1,3.7h-2.6v-24.5h2.6l0.1,8.2h45c-2.2-6.3-5-12.6-8.3-19l-3.8-0.2
		L99.3,209.3z"/>
	<path class="st2" d="M110.4,176.5l5.2,11.1c-1,1.4-2.3,2.3-3.9,2.8c1.1,1.8,2,3.6,2.7,5.5c0.7,1.8,1.1,3.4,1.1,4.8
		c0,2.1-0.7,3.8-2.2,5.1c-1.5,1.3-3.3,2-5.6,2c-1,0-2.1-0.1-3.3-0.3c-1.2-0.2-2.1-0.5-2.8-0.9l-2.6-16l-2.2-0.2
		c-2.3-0.1-4,0.4-5.3,1.4c-1.3,1.1-1.9,2.8-1.9,5.1c0,1.1,0.1,2.2,0.3,3.3c0.2,1.2,0.5,2.1,0.9,2.9l2.6,1.2l-0.8,2l-10.9-3.5
		c-1.7-3.9-2.5-7.6-2.5-11c0-3.6,0.9-6.5,2.8-8.8s4.8-3.4,8.9-3.4l1.5,0.1l10.2,0.8l2.7,0.2c0.9,0,1.6-0.1,2.2-0.2
		c0.5-0.2,1.1-0.4,1.6-0.8l-0.9-2.3L110.4,176.5z M109.1,190.9l-1.6,0.1l-1.7-0.1l-4.3-0.2l1.4,5.8c0.7,0.2,1.5,0.3,2.6,0.3
		c1.5,0,2.6-0.3,3.4-0.9s1.1-1.3,1.1-2.2C110,192.9,109.7,191.9,109.1,190.9z"/>
	<path class="st2" d="M81.2,147.6c1.3-2.2,3.2-4,5.5-5.2s5-1.9,8-1.9c2.6,0,5.3,0.4,8.2,1.3c2.9,0.9,5.1,1.9,6.7,3.1
		c1.4,1,2.7,2.7,4,5.2c1.3,2.5,1.9,4.6,1.9,6.3c0,2.3-0.4,5.2-1.2,8.8c-0.8,3.6-1.7,6.3-2.7,8.1l-44.9,0.2l0.6,2.9l-2.2,0.8l-4.2-14
		l1.8-1.1l24.8,0.3l-8.3-7.1C79.2,152.5,79.9,149.9,81.2,147.6z M99.2,151.4c-2.3,0-4.3,0.4-6,1.1c-1.7,0.8-3,1.8-3.9,3
		c-0.9,1.2-1.4,2.6-1.4,4l3,3l15.6,0.2c1.6-3.4,2.6-6.6,3.2-9.4C106.9,152,103.4,151.4,99.2,151.4z"/>
</g>
</svg>
